<svg width="400" height="400" viewBox="0 0 400 400" fill="none" xmlns="http://www.w3.org/2000/svg">
<g clip-path="url(#clip0_22_4)">
<rect width="400" height="400" fill="white"/>
<rect width="400" height="400" fill="#FF9900"/>
<g filter="url(#filter0_d_22_4)">
<mask id="path-2-outside-1_22_4" maskUnits="userSpaceOnUse" x="22" y="124" width="286" height="230" fill="black">
<rect fill="white" x="22" y="124" width="286" height="230"/>
<path d="M23.0114 352.364V127.364H47.3011V153.358H50.2841C52.1307 150.517 54.6875 146.895 57.9545 142.491C61.2926 138.017 66.0511 134.04 72.2301 130.56C78.4801 127.009 86.9318 125.233 97.5852 125.233C111.364 125.233 123.509 128.678 134.02 135.567C144.531 142.456 152.734 152.222 158.629 164.864C164.524 177.506 167.472 192.42 167.472 209.608C167.472 226.938 164.524 241.959 158.629 254.672C152.734 267.314 144.567 277.115 134.126 284.075C123.686 290.964 111.648 294.409 98.0114 294.409C87.5 294.409 79.0838 292.669 72.7628 289.189C66.4418 285.638 61.5767 281.625 58.1676 277.151C54.7585 272.605 52.1307 268.841 50.2841 265.858H48.1534V352.364H23.0114ZM47.7273 209.182C47.7273 221.54 49.5384 232.442 53.1605 241.888C56.7827 251.263 62.0739 258.614 69.0341 263.94C75.9943 269.196 84.517 271.824 94.6023 271.824C105.114 271.824 113.885 269.054 120.916 263.514C128.018 257.903 133.345 250.375 136.896 240.929C140.518 231.412 142.33 220.83 142.33 209.182C142.33 197.676 140.554 187.307 137.003 178.074C133.523 168.77 128.232 161.419 121.129 156.021C114.098 150.553 105.256 147.818 94.6023 147.818C84.375 147.818 75.7813 150.411 68.821 155.595C61.8608 160.709 56.6051 167.882 53.054 177.115C49.5028 186.277 47.7273 196.966 47.7273 209.182ZM218.994 292.455C213.176 292.455 208.04 290.985 203.585 288.045C199.131 285.076 195.646 280.894 193.131 275.5C190.616 270.076 189.358 263.667 189.358 256.273C189.358 248.939 190.616 242.576 193.131 237.182C195.646 231.788 199.146 227.621 203.631 224.682C208.116 221.742 213.297 220.273 219.176 220.273C223.722 220.273 227.313 221.03 229.949 222.545C232.616 224.03 234.646 225.727 236.04 227.636C237.464 229.515 238.57 231.061 239.358 232.273H240.267V197.909H250.994V291H240.631V280.273H239.358C238.57 281.545 237.449 283.152 235.994 285.091C234.54 287 232.464 288.712 229.767 290.227C227.07 291.712 223.479 292.455 218.994 292.455ZM220.449 282.818C224.752 282.818 228.388 281.697 231.358 279.455C234.328 277.182 236.585 274.045 238.131 270.045C239.676 266.015 240.449 261.364 240.449 256.091C240.449 250.879 239.691 246.318 238.176 242.409C236.661 238.47 234.419 235.409 231.449 233.227C228.479 231.015 224.813 229.909 220.449 229.909C215.903 229.909 212.116 231.076 209.085 233.409C206.085 235.712 203.828 238.848 202.312 242.818C200.828 246.758 200.085 251.182 200.085 256.091C200.085 261.061 200.843 265.576 202.358 269.636C203.903 273.667 206.176 276.879 209.176 279.273C212.206 281.636 215.964 282.818 220.449 282.818ZM303.222 221.182V230.273H265.585V221.182H303.222ZM276.858 291V211.545C276.858 207.545 277.797 204.212 279.676 201.545C281.555 198.879 283.994 196.879 286.994 195.545C289.994 194.212 293.161 193.545 296.494 193.545C299.131 193.545 301.282 193.758 302.949 194.182C304.616 194.606 305.858 195 306.676 195.364L303.585 204.636C303.04 204.455 302.282 204.227 301.312 203.955C300.373 203.682 299.131 203.545 297.585 203.545C294.04 203.545 291.479 204.439 289.903 206.227C288.358 208.015 287.585 210.636 287.585 214.091V291H276.858Z"/>
</mask>
<path d="M23.0114 352.364V127.364H47.3011V153.358H50.2841C52.1307 150.517 54.6875 146.895 57.9545 142.491C61.2926 138.017 66.0511 134.04 72.2301 130.56C78.4801 127.009 86.9318 125.233 97.5852 125.233C111.364 125.233 123.509 128.678 134.02 135.567C144.531 142.456 152.734 152.222 158.629 164.864C164.524 177.506 167.472 192.42 167.472 209.608C167.472 226.938 164.524 241.959 158.629 254.672C152.734 267.314 144.567 277.115 134.126 284.075C123.686 290.964 111.648 294.409 98.0114 294.409C87.5 294.409 79.0838 292.669 72.7628 289.189C66.4418 285.638 61.5767 281.625 58.1676 277.151C54.7585 272.605 52.1307 268.841 50.2841 265.858H48.1534V352.364H23.0114ZM47.7273 209.182C47.7273 221.54 49.5384 232.442 53.1605 241.888C56.7827 251.263 62.0739 258.614 69.0341 263.94C75.9943 269.196 84.517 271.824 94.6023 271.824C105.114 271.824 113.885 269.054 120.916 263.514C128.018 257.903 133.345 250.375 136.896 240.929C140.518 231.412 142.33 220.83 142.33 209.182C142.33 197.676 140.554 187.307 137.003 178.074C133.523 168.77 128.232 161.419 121.129 156.021C114.098 150.553 105.256 147.818 94.6023 147.818C84.375 147.818 75.7813 150.411 68.821 155.595C61.8608 160.709 56.6051 167.882 53.054 177.115C49.5028 186.277 47.7273 196.966 47.7273 209.182ZM218.994 292.455C213.176 292.455 208.04 290.985 203.585 288.045C199.131 285.076 195.646 280.894 193.131 275.5C190.616 270.076 189.358 263.667 189.358 256.273C189.358 248.939 190.616 242.576 193.131 237.182C195.646 231.788 199.146 227.621 203.631 224.682C208.116 221.742 213.297 220.273 219.176 220.273C223.722 220.273 227.313 221.03 229.949 222.545C232.616 224.03 234.646 225.727 236.04 227.636C237.464 229.515 238.57 231.061 239.358 232.273H240.267V197.909H250.994V291H240.631V280.273H239.358C238.57 281.545 237.449 283.152 235.994 285.091C234.54 287 232.464 288.712 229.767 290.227C227.07 291.712 223.479 292.455 218.994 292.455ZM220.449 282.818C224.752 282.818 228.388 281.697 231.358 279.455C234.328 277.182 236.585 274.045 238.131 270.045C239.676 266.015 240.449 261.364 240.449 256.091C240.449 250.879 239.691 246.318 238.176 242.409C236.661 238.47 234.419 235.409 231.449 233.227C228.479 231.015 224.813 229.909 220.449 229.909C215.903 229.909 212.116 231.076 209.085 233.409C206.085 235.712 203.828 238.848 202.312 242.818C200.828 246.758 200.085 251.182 200.085 256.091C200.085 261.061 200.843 265.576 202.358 269.636C203.903 273.667 206.176 276.879 209.176 279.273C212.206 281.636 215.964 282.818 220.449 282.818ZM303.222 221.182V230.273H265.585V221.182H303.222ZM276.858 291V211.545C276.858 207.545 277.797 204.212 279.676 201.545C281.555 198.879 283.994 196.879 286.994 195.545C289.994 194.212 293.161 193.545 296.494 193.545C299.131 193.545 301.282 193.758 302.949 194.182C304.616 194.606 305.858 195 306.676 195.364L303.585 204.636C303.04 204.455 302.282 204.227 301.312 203.955C300.373 203.682 299.131 203.545 297.585 203.545C294.04 203.545 291.479 204.439 289.903 206.227C288.358 208.015 287.585 210.636 287.585 214.091V291H276.858Z" fill="black" fill-opacity="0.5" shape-rendering="crispEdges"/>
<path d="M23.0114 352.364V127.364H47.3011V153.358H50.2841C52.1307 150.517 54.6875 146.895 57.9545 142.491C61.2926 138.017 66.0511 134.04 72.2301 130.56C78.4801 127.009 86.9318 125.233 97.5852 125.233C111.364 125.233 123.509 128.678 134.02 135.567C144.531 142.456 152.734 152.222 158.629 164.864C164.524 177.506 167.472 192.42 167.472 209.608C167.472 226.938 164.524 241.959 158.629 254.672C152.734 267.314 144.567 277.115 134.126 284.075C123.686 290.964 111.648 294.409 98.0114 294.409C87.5 294.409 79.0838 292.669 72.7628 289.189C66.4418 285.638 61.5767 281.625 58.1676 277.151C54.7585 272.605 52.1307 268.841 50.2841 265.858H48.1534V352.364H23.0114ZM47.7273 209.182C47.7273 221.54 49.5384 232.442 53.1605 241.888C56.7827 251.263 62.0739 258.614 69.0341 263.94C75.9943 269.196 84.517 271.824 94.6023 271.824C105.114 271.824 113.885 269.054 120.916 263.514C128.018 257.903 133.345 250.375 136.896 240.929C140.518 231.412 142.33 220.83 142.33 209.182C142.33 197.676 140.554 187.307 137.003 178.074C133.523 168.77 128.232 161.419 121.129 156.021C114.098 150.553 105.256 147.818 94.6023 147.818C84.375 147.818 75.7813 150.411 68.821 155.595C61.8608 160.709 56.6051 167.882 53.054 177.115C49.5028 186.277 47.7273 196.966 47.7273 209.182ZM218.994 292.455C213.176 292.455 208.04 290.985 203.585 288.045C199.131 285.076 195.646 280.894 193.131 275.5C190.616 270.076 189.358 263.667 189.358 256.273C189.358 248.939 190.616 242.576 193.131 237.182C195.646 231.788 199.146 227.621 203.631 224.682C208.116 221.742 213.297 220.273 219.176 220.273C223.722 220.273 227.313 221.03 229.949 222.545C232.616 224.03 234.646 225.727 236.04 227.636C237.464 229.515 238.57 231.061 239.358 232.273H240.267V197.909H250.994V291H240.631V280.273H239.358C238.57 281.545 237.449 283.152 235.994 285.091C234.54 287 232.464 288.712 229.767 290.227C227.07 291.712 223.479 292.455 218.994 292.455ZM220.449 282.818C224.752 282.818 228.388 281.697 231.358 279.455C234.328 277.182 236.585 274.045 238.131 270.045C239.676 266.015 240.449 261.364 240.449 256.091C240.449 250.879 239.691 246.318 238.176 242.409C236.661 238.47 234.419 235.409 231.449 233.227C228.479 231.015 224.813 229.909 220.449 229.909C215.903 229.909 212.116 231.076 209.085 233.409C206.085 235.712 203.828 238.848 202.312 242.818C200.828 246.758 200.085 251.182 200.085 256.091C200.085 261.061 200.843 265.576 202.358 269.636C203.903 273.667 206.176 276.879 209.176 279.273C212.206 281.636 215.964 282.818 220.449 282.818ZM303.222 221.182V230.273H265.585V221.182H303.222ZM276.858 291V211.545C276.858 207.545 277.797 204.212 279.676 201.545C281.555 198.879 283.994 196.879 286.994 195.545C289.994 194.212 293.161 193.545 296.494 193.545C299.131 193.545 301.282 193.758 302.949 194.182C304.616 194.606 305.858 195 306.676 195.364L303.585 204.636C303.04 204.455 302.282 204.227 301.312 203.955C300.373 203.682 299.131 203.545 297.585 203.545C294.04 203.545 291.479 204.439 289.903 206.227C288.358 208.015 287.585 210.636 287.585 214.091V291H276.858Z" fill="#FFFF00" fill-opacity="0.8" shape-rendering="crispEdges"/>
<path d="M23.0114 352.364H22.0114V353.364H23.0114V352.364ZM23.0114 127.364V126.364H22.0114V127.364H23.0114ZM47.3011 127.364H48.3011V126.364H47.3011V127.364ZM47.3011 153.358H46.3011V154.358H47.3011V153.358ZM50.2841 153.358V154.358H50.8268L51.1225 153.903L50.2841 153.358ZM57.9545 142.491L57.153 141.894L57.1515 141.896L57.9545 142.491ZM72.2301 130.56L72.7209 131.431L72.7241 131.429L72.2301 130.56ZM134.02 135.567L134.568 134.73L134.568 134.73L134.02 135.567ZM158.629 164.864L159.536 164.441L159.536 164.441L158.629 164.864ZM158.629 254.672L159.536 255.094L159.536 255.093L158.629 254.672ZM134.126 284.075L134.677 284.91L134.681 284.907L134.126 284.075ZM72.7628 289.189L72.273 290.061L72.2805 290.065L72.7628 289.189ZM58.1676 277.151L57.3676 277.751L57.3722 277.757L58.1676 277.151ZM50.2841 265.858L51.1344 265.332L50.8411 264.858H50.2841V265.858ZM48.1534 265.858V264.858H47.1534V265.858H48.1534ZM48.1534 352.364V353.364H49.1534V352.364H48.1534ZM53.1605 241.888L52.2268 242.246L52.2277 242.248L53.1605 241.888ZM69.0341 263.94L68.4263 264.734L68.4315 264.738L69.0341 263.94ZM120.916 263.514L121.535 264.3L121.536 264.299L120.916 263.514ZM136.896 240.929L135.962 240.573L135.96 240.577L136.896 240.929ZM137.003 178.074L136.066 178.424L136.07 178.433L137.003 178.074ZM121.129 156.021L120.515 156.811L120.524 156.817L121.129 156.021ZM68.821 155.595L69.4131 156.401L69.4184 156.397L68.821 155.595ZM53.054 177.115L53.9864 177.476L53.9873 177.474L53.054 177.115ZM24.0114 352.364V127.364H22.0114V352.364H24.0114ZM23.0114 128.364H47.3011V126.364H23.0114V128.364ZM46.3011 127.364V153.358H48.3011V127.364H46.3011ZM47.3011 154.358H50.2841V152.358H47.3011V154.358ZM51.1225 153.903C52.9532 151.087 55.4964 147.483 58.7576 143.087L57.1515 141.896C53.8786 146.307 51.3082 149.948 49.4456 152.813L51.1225 153.903ZM58.7561 143.089C61.9914 138.753 66.6317 134.86 72.7209 131.431L71.7394 129.688C65.4706 133.219 60.5938 137.281 57.153 141.894L58.7561 143.089ZM72.7241 131.429C78.768 127.995 87.0275 126.233 97.5852 126.233V124.233C86.8362 124.233 78.1922 126.022 71.7361 129.69L72.7241 131.429ZM97.5852 126.233C111.188 126.233 123.139 129.631 133.472 136.403L134.568 134.73C123.878 127.724 111.539 124.233 97.5852 124.233V126.233ZM133.472 136.403C143.811 143.179 151.898 152.794 157.723 165.286L159.536 164.441C153.571 151.65 145.252 141.732 134.568 134.73L133.472 136.403ZM157.723 165.286C163.544 177.769 166.472 192.533 166.472 209.608H168.472C168.472 192.308 165.505 177.242 159.536 164.441L157.723 165.286ZM166.472 209.608C166.472 226.826 163.543 241.697 157.722 254.251L159.536 255.093C165.505 242.22 168.472 227.049 168.472 209.608H166.472ZM157.723 254.249C151.897 266.744 143.843 276.396 133.572 283.243L134.681 284.907C145.291 277.834 153.572 267.884 159.536 255.094L157.723 254.249ZM133.576 283.241C123.313 290.012 111.47 293.409 98.0114 293.409V295.409C111.825 295.409 124.059 291.917 134.677 284.91L133.576 283.241ZM98.0114 293.409C87.5968 293.409 79.3661 291.683 73.2451 288.313L72.2805 290.065C78.8015 293.655 87.4032 295.409 98.0114 295.409V293.409ZM73.2526 288.317C67.0176 284.814 62.2693 280.884 58.963 276.545L57.3722 277.757C60.8841 282.366 65.866 286.461 72.273 290.061L73.2526 288.317ZM58.9676 276.551C55.5669 272.016 52.9588 268.279 51.1344 265.332L49.4338 266.384C51.3026 269.403 53.9501 273.194 57.3676 277.751L58.9676 276.551ZM50.2841 264.858H48.1534V266.858H50.2841V264.858ZM47.1534 265.858V352.364H49.1534V265.858H47.1534ZM48.1534 351.364H23.0114V353.364H48.1534V351.364ZM46.7273 209.182C46.7273 221.636 48.5523 232.663 52.2268 242.246L54.0942 241.53C50.5244 232.22 48.7273 221.444 48.7273 209.182H46.7273ZM52.2277 242.248C55.9063 251.769 61.2995 259.28 68.4263 264.734L69.6418 263.146C62.8483 257.947 57.659 250.756 54.0933 241.527L52.2277 242.248ZM68.4315 264.738C75.5916 270.145 84.335 272.824 94.6023 272.824V270.824C84.6991 270.824 76.3971 268.247 69.6367 263.142L68.4315 264.738ZM94.6023 272.824C105.297 272.824 114.298 270.002 121.535 264.3L120.297 262.729C113.472 268.106 104.93 270.824 94.6023 270.824V272.824ZM121.536 264.299C128.797 258.563 134.225 250.877 137.832 241.281L135.96 240.577C132.466 249.873 127.24 257.244 120.296 262.73L121.536 264.299ZM137.831 241.285C141.502 231.639 143.33 220.934 143.33 209.182H141.33C141.33 220.725 139.535 231.185 135.962 240.573L137.831 241.285ZM143.33 209.182C143.33 197.573 141.538 187.079 137.936 177.715L136.07 178.433C139.57 187.534 141.33 197.779 141.33 209.182H143.33ZM137.939 177.724C134.401 168.263 129.004 160.75 121.734 155.225L120.524 156.817C127.459 162.088 132.645 169.276 136.066 178.424L137.939 177.724ZM121.743 155.232C114.504 149.601 105.433 146.818 94.6023 146.818V148.818C105.078 148.818 113.692 151.504 120.515 156.811L121.743 155.232ZM94.6023 146.818C84.1994 146.818 75.3858 149.458 68.2236 154.793L69.4184 156.397C76.1767 151.363 84.5506 148.818 94.6023 148.818V146.818ZM68.2289 154.789C61.0931 160.032 55.7302 167.371 52.1206 176.756L53.9873 177.474C57.48 168.393 62.6285 161.386 69.4131 156.401L68.2289 154.789ZM52.1216 176.754C48.5164 186.055 46.7273 196.871 46.7273 209.182H48.7273C48.7273 197.061 50.4893 186.499 53.9864 177.476L52.1216 176.754ZM203.585 288.045L203.031 288.878L203.034 288.88L203.585 288.045ZM193.131 275.5L192.223 275.921L192.224 275.923L193.131 275.5ZM193.131 237.182L192.224 236.759L192.224 236.759L193.131 237.182ZM203.631 224.682L203.083 223.845L203.083 223.845L203.631 224.682ZM229.949 222.545L229.451 223.413L229.462 223.419L229.949 222.545ZM236.04 227.636L235.232 228.226L235.237 228.233L235.243 228.24L236.04 227.636ZM239.358 232.273L238.52 232.818L238.815 233.273H239.358V232.273ZM240.267 232.273V233.273H241.267V232.273H240.267ZM240.267 197.909V196.909H239.267V197.909H240.267ZM250.994 197.909H251.994V196.909H250.994V197.909ZM250.994 291V292H251.994V291H250.994ZM240.631 291H239.631V292H240.631V291ZM240.631 280.273H241.631V279.273H240.631V280.273ZM239.358 280.273V279.273H238.801L238.508 279.746L239.358 280.273ZM235.994 285.091L236.79 285.697L236.794 285.691L235.994 285.091ZM229.767 290.227L230.249 291.103L230.257 291.099L229.767 290.227ZM231.358 279.455L231.961 280.253L231.966 280.249L231.358 279.455ZM238.131 270.045L239.063 270.406L239.064 270.403L238.131 270.045ZM238.176 242.409L237.243 242.768L237.244 242.77L238.176 242.409ZM231.449 233.227L230.851 234.029L230.857 234.033L231.449 233.227ZM209.085 233.409L209.694 234.202L209.695 234.201L209.085 233.409ZM202.312 242.818L201.378 242.462L201.377 242.465L202.312 242.818ZM202.358 269.636L201.421 269.986L201.424 269.994L202.358 269.636ZM209.176 279.273L208.552 280.054L208.561 280.061L209.176 279.273ZM218.994 291.455C213.354 291.455 208.412 290.033 204.136 287.211L203.034 288.88C207.667 291.937 212.999 293.455 218.994 293.455V291.455ZM204.14 287.213C199.855 284.356 196.484 280.324 194.037 275.077L192.224 275.923C194.808 281.464 198.407 285.795 203.031 288.878L204.14 287.213ZM194.038 275.079C191.597 269.814 190.358 263.555 190.358 256.273H188.358C188.358 263.778 189.635 270.337 192.223 275.921L194.038 275.079ZM190.358 256.273C190.358 249.052 191.596 242.839 194.037 237.604L192.224 236.759C189.635 242.313 188.358 248.826 188.358 256.273H190.358ZM194.037 237.604C196.482 232.36 199.866 228.345 204.179 225.518L203.083 223.845C198.425 226.898 194.809 231.216 192.224 236.759L194.037 237.604ZM204.179 225.518C208.485 222.696 213.473 221.273 219.176 221.273V219.273C213.122 219.273 207.746 220.789 203.083 223.845L204.179 225.518ZM219.176 221.273C223.627 221.273 227.023 222.017 229.451 223.412L230.447 221.678C227.602 220.043 223.816 219.273 219.176 219.273V221.273ZM229.462 223.419C232.038 224.853 233.944 226.463 235.232 228.226L236.847 227.047C235.347 224.992 233.193 223.207 230.435 221.672L229.462 223.419ZM235.243 228.24C236.66 230.11 237.75 231.634 238.52 232.818L240.196 231.728C239.39 230.487 238.268 228.92 236.837 227.032L235.243 228.24ZM239.358 233.273H240.267V231.273H239.358V233.273ZM241.267 232.273V197.909H239.267V232.273H241.267ZM240.267 198.909H250.994V196.909H240.267V198.909ZM249.994 197.909V291H251.994V197.909H249.994ZM250.994 290H240.631V292H250.994V290ZM241.631 291V280.273H239.631V291H241.631ZM240.631 279.273H239.358V281.273H240.631V279.273ZM238.508 279.746C237.742 280.983 236.64 282.563 235.194 284.491L236.794 285.691C238.257 283.74 239.398 282.108 240.208 280.799L238.508 279.746ZM235.199 284.485C233.847 286.259 231.888 287.889 229.277 289.355L230.257 291.099C233.04 289.536 235.232 287.741 236.79 285.697L235.199 284.485ZM229.285 289.351C226.788 290.726 223.382 291.455 218.994 291.455V293.455C223.576 293.455 227.352 292.698 230.249 291.103L229.285 289.351ZM220.449 283.818C224.934 283.818 228.791 282.646 231.961 280.253L230.755 278.657C227.985 280.748 224.57 281.818 220.449 281.818V283.818ZM231.966 280.249C235.102 277.848 237.462 274.552 239.063 270.406L237.198 269.685C235.709 273.539 233.553 276.515 230.75 278.66L231.966 280.249ZM239.064 270.403C240.662 266.237 241.449 261.46 241.449 256.091H239.449C239.449 261.268 238.69 265.794 237.197 269.687L239.064 270.403ZM241.449 256.091C241.449 250.784 240.678 246.096 239.109 242.048L237.244 242.77C238.705 246.54 239.449 250.973 239.449 256.091H241.449ZM239.109 242.05C237.536 237.959 235.186 234.732 232.041 232.421L230.857 234.033C233.651 236.086 235.786 238.981 237.243 242.768L239.109 242.05ZM232.046 232.425C228.875 230.063 224.988 228.909 220.449 228.909V230.909C224.637 230.909 228.084 231.968 230.851 234.029L232.046 232.425ZM220.449 228.909C215.726 228.909 211.712 230.125 208.475 232.617L209.695 234.201C212.519 232.027 216.081 230.909 220.449 230.909V228.909ZM208.476 232.616C205.312 235.045 202.951 238.341 201.378 242.462L203.247 243.175C204.704 239.356 206.858 236.379 209.694 234.202L208.476 232.616ZM201.377 242.465C199.843 246.535 199.085 251.081 199.085 256.091H201.085C201.085 251.283 201.812 246.981 203.248 243.171L201.377 242.465ZM199.085 256.091C199.085 261.163 199.859 265.798 201.421 269.986L203.295 269.287C201.827 265.353 201.085 260.959 201.085 256.091H199.085ZM201.424 269.994C203.025 274.17 205.396 277.536 208.552 280.054L209.8 278.491C206.956 276.222 204.781 273.164 203.292 269.278L201.424 269.994ZM208.561 280.061C211.795 282.584 215.78 283.818 220.449 283.818V281.818C216.148 281.818 212.617 280.689 209.791 278.484L208.561 280.061ZM303.222 221.182H304.222V220.182H303.222V221.182ZM303.222 230.273V231.273H304.222V230.273H303.222ZM265.585 230.273H264.585V231.273H265.585V230.273ZM265.585 221.182V220.182H264.585V221.182H265.585ZM276.858 291H275.858V292H276.858V291ZM279.676 201.545L278.859 200.969L278.859 200.969L279.676 201.545ZM286.994 195.545L286.588 194.632L286.588 194.632L286.994 195.545ZM302.949 194.182L302.702 195.151L302.702 195.151L302.949 194.182ZM306.676 195.364L307.625 195.68L307.912 194.819L307.082 194.45L306.676 195.364ZM303.585 204.636L303.269 205.585L304.218 205.901L304.534 204.953L303.585 204.636ZM301.312 203.955L301.034 204.915L301.042 204.917L301.312 203.955ZM289.903 206.227L289.153 205.566L289.147 205.573L289.903 206.227ZM287.585 291V292H288.585V291H287.585ZM302.222 221.182V230.273H304.222V221.182H302.222ZM303.222 229.273H265.585V231.273H303.222V229.273ZM266.585 230.273V221.182H264.585V230.273H266.585ZM265.585 222.182H303.222V220.182H265.585V222.182ZM277.858 291V211.545H275.858V291H277.858ZM277.858 211.545C277.858 207.704 278.758 204.585 280.494 202.121L278.859 200.969C276.836 203.84 275.858 207.387 275.858 211.545H277.858ZM280.494 202.121C282.268 199.603 284.564 197.72 287.4 196.459L286.588 194.632C283.424 196.038 280.842 198.154 278.859 200.969L280.494 202.121ZM287.4 196.459C290.271 195.184 293.299 194.545 296.494 194.545V192.545C293.023 192.545 289.718 193.241 286.588 194.632L287.4 196.459ZM296.494 194.545C299.087 194.545 301.147 194.755 302.702 195.151L303.196 193.213C301.418 192.76 299.175 192.545 296.494 192.545V194.545ZM302.702 195.151C304.354 195.571 305.531 195.949 306.27 196.277L307.082 194.45C306.185 194.051 304.877 193.641 303.196 193.213L302.702 195.151ZM305.727 195.047L302.637 204.32L304.534 204.953L307.625 195.68L305.727 195.047ZM303.901 203.688C303.334 203.498 302.559 203.266 301.583 202.992L301.042 204.917C302.006 205.188 302.746 205.411 303.269 205.585L303.901 203.688ZM301.591 202.994C300.525 202.685 299.177 202.545 297.585 202.545V204.545C299.084 204.545 300.222 204.679 301.034 204.915L301.591 202.994ZM297.585 202.545C293.894 202.545 290.996 203.475 289.153 205.566L290.654 206.888C291.963 205.403 294.185 204.545 297.585 204.545V202.545ZM289.147 205.573C287.386 207.611 286.585 210.505 286.585 214.091H288.585C288.585 210.768 289.33 208.419 290.66 206.881L289.147 205.573ZM286.585 214.091V291H288.585V214.091H286.585ZM287.585 290H276.858V292H287.585V290Z" fill="black" mask="url(#path-2-outside-1_22_4)"/>
</g>
</g>
<defs>
<filter id="filter0_d_22_4" x="19.0114" y="125.233" width="291.665" height="235.131" filterUnits="userSpaceOnUse" color-interpolation-filters="sRGB">
<feFlood flood-opacity="0" result="BackgroundImageFix"/>
<feColorMatrix in="SourceAlpha" type="matrix" values="0 0 0 0 0 0 0 0 0 0 0 0 0 0 0 0 0 0 127 0" result="hardAlpha"/>
<feOffset dy="4"/>
<feGaussianBlur stdDeviation="2"/>
<feComposite in2="hardAlpha" operator="out"/>
<feColorMatrix type="matrix" values="0 0 0 0 0 0 0 0 0 0 0 0 0 0 0 0 0 0 0.25 0"/>
<feBlend mode="normal" in2="BackgroundImageFix" result="effect1_dropShadow_22_4"/>
<feBlend mode="normal" in="SourceGraphic" in2="effect1_dropShadow_22_4" result="shape"/>
</filter>
<clipPath id="clip0_22_4">
<rect width="400" height="400" fill="white"/>
</clipPath>
</defs>
</svg>
